<svg width="14" height="14" viewBox="0 0 14 14" fill="none" xmlns="http://www.w3.org/2000/svg">
<path d="M13.0463 9.37111C12.3352 8.78457 11.6828 8.49943 11.052 8.49943C10.1394 8.49943 9.48232 9.09522 8.88742 9.70555C8.81901 9.77581 8.73617 9.80857 8.62678 9.80857C8.12549 9.80862 7.2436 9.16433 6.00561 7.89365C4.54919 6.39884 3.99853 5.44811 4.3688 5.06796C5.37256 4.03816 5.68592 3.00582 4.1491 1.0443C3.59893 0.341548 3.06065 0 2.50352 0C1.75216 0 1.18099 0.616386 0.677068 1.16026C0.589946 1.25427 0.507647 1.34309 0.426957 1.4259C-0.142603 2.01038 -0.142311 3.28526 0.427785 4.83637C1.05328 6.53826 2.28829 8.38962 3.90537 10.0495C5.15593 11.3328 6.5166 12.3699 7.84039 13.0663C8.99613 13.6743 10.1172 14 10.997 14C10.9969 14 10.9971 14 10.997 14C11.5476 14 11.9952 13.8767 12.2906 13.626C12.8906 13.1169 14.0074 12.1739 14 11.0537C13.9959 10.453 13.6751 9.88993 13.0463 9.37111Z" fill="#604278"/>
</svg>
